<?xml version="1.0" encoding="utf-8"?>
<!DOCTYPE svg PUBLIC "-//W3C//DTD SVG 1.1//EN" "http://www.w3.org/Graphics/SVG/1.1/DTD/svg11.dtd">
<svg style="width:308px;height:308px;" version="1.1" id="图形" xmlns="http://www.w3.org/2000/svg" xmlns:xlink="http://www.w3.org/1999/xlink" x="0px" y="0px" width="1024px" height="1024px" viewBox="0 0 1024 1024" enable-background="new 0 0 1024 1024" xml:space="preserve">
  <path class="svgpath" data-index="path_0" fill="#272636" d="M571.551816 511.215124c-10.187013 0-20.376073 9.444093-20.376073 21.095457 0 9.44307 10.18906 18.938328 20.376073 18.938328 15.294334 0 26.213012-9.495258 26.213012-18.938328C597.764827 520.659217 586.84615 511.215124 571.551816 511.215124L571.551816 511.215124 571.551816 511.215124zM504.598938 412.94089c16.013719 0 26.200732-10.188037 26.200732-25.482371 0-16.012695-10.187013-25.456788-26.200732-25.456788-15.282055 0-29.844725 9.444093-29.844725 25.456788C474.754213 402.752854 489.316883 412.94089 504.598938 412.94089L504.598938 412.94089 504.598938 412.94089zM512.606309 64.833611c-246.717078 0-446.715111 200.011336-446.715111 446.740694 0 246.717078 199.998033 446.730461 446.715111 446.730461 246.717078 0 446.703855-200.013383 446.703855-446.730461C959.310164 264.843924 759.322363 64.833611 512.606309 64.833611L512.606309 64.833611 512.606309 64.833611zM428.177408 624.74583c-26.932396 0-46.589085-4.363378-72.059176-11.651364l-73.509201 37.108153 21.118993-62.565964c-51.683103-36.388768-82.247212-82.271772-82.247212-138.305973 0-98.979292 93.154633-174.684508 206.696596-174.684508 100.441597 0 189.965539 59.691497 207.427236 144.120398-7.27366-1.464351-13.818727-2.181689-19.643386-2.181689-98.991572 0-175.400822 74.254168-175.400822 163.763784 0 15.294334 2.180666 29.100782 5.812379 43.676755C440.559413 624.74583 434.00309 624.74583 428.177408 624.74583L428.177408 624.74583 428.177408 624.74583zM731.68491 696.086645l14.550391 52.402487-55.314817-31.308053c-21.107737 4.362354-41.482787 10.93198-62.5895 10.93198-97.53029 0-174.683485-66.978461-174.683485-149.97064 0-82.939991 77.153194-149.906172 174.683485-149.906172 92.435249 0 175.414125 66.966181 175.414125 149.906172C803.744086 624.74583 772.448312 666.216337 731.68491 696.086645L731.68491 696.086645 731.68491 696.086645zM360.493889 362.001731c-15.282055 0-31.295773 9.444093-31.295773 25.456788 0 15.294334 16.013719 25.482371 31.295773 25.482371 14.550391 0 26.200732-10.188037 26.200732-25.482371C386.694621 371.445824 375.043257 362.001731 360.493889 362.001731L360.493889 362.001731 360.493889 362.001731zM685.825442 511.215124c-10.9197 0-20.37505 9.444093-20.37505 21.095457 0 9.44307 9.455349 18.938328 20.37505 18.938328 14.563694 0 25.483394-9.495258 25.483394-18.938328C711.308837 520.659217 700.389136 511.215124 685.825442 511.215124L685.825442 511.215124 685.825442 511.215124zM685.825442 511.215124" />

</svg>
