<?xml version="1.0" encoding="utf-8"?>
<!DOCTYPE svg PUBLIC "-//W3C//DTD SVG 1.1//EN" "http://www.w3.org/Graphics/SVG/1.1/DTD/svg11.dtd">
<svg style="width:308px;height:308px;" version="1.1" id="图形" xmlns="http://www.w3.org/2000/svg" xmlns:xlink="http://www.w3.org/1999/xlink" x="0px" y="0px" width="1024px" height="1024px" viewBox="0 0 1024 1024" enable-background="new 0 0 1024 1024" xml:space="preserve">
  <path class="svgpath" data-index="path_0" fill="#272636" d="M209.107968 468.534272 207.479808 463.514624 206.17728 456.933376 205.263872 453.331968 205.263872 448.820224 205.263872 443.410432 205.263872 438.52288 206.828544 432.72192 208.456704 426.53184 210.541568 420.093952 213.378048 412.893184 217.125888 405.414912 222.403584 397.919232 222.403584 392.65792 222.9248 387.75296 223.707136 381.056 225.989632 373.594112 228.074496 365.478912 229.735424 361.731072 231.657472 358.26176 234.134528 354.400256 236.807168 351.547392 236.807168 346.28608 236.807168 340.337664 236.807168 333.006848 238.37184 323.459072 239.935488 312.380416 242.737152 299.117568 246.58432 285.33248 249.450496 277.725184 252.286976 269.48096 255.38048 261.758976 259.095552 253.512704 262.87616 244.48512 267.242496 235.997184 272.131072 226.972672 278.322176 217.94304 281.157632 212.796416 284.219392 208.54272 290.835456 199.011328 297.613312 189.479936 305.369088 179.688448 313.64608 170.140672 322.639872 160.756736 332.024832 151.076864 343.364608 140.648448 350.599168 134.32832 359.364608 127.501312 368.260096 121.455616 377.9072 115.656704 387.160064 110.507008 397.589504 106.253312 408.667136 100.959232 419.683328 97.358848 430.695424 93.628416 442.55744 89.89696 454.418432 87.061504 466.932736 84.729856 479.57504 82.678784 492.024832 81.000448 504.537088 79.305728 517.830656 78.55616 530.476032 78.55616 543.57504 78.55616 557.129728 78.55616 570.231808 80.218112 583.396352 81.78176 596.822016 83.201024 609.26976 86.16448 622.434304 88.983552 634.784768 92.193792 648.307712 95.809536 660.690944 100.19328 672.553984 105.21088 685.196288 110.507008 696.76544 116.307968 707.975168 122.7264 718.954496 129.829888 728.469504 136.397824 732.83584 140.127232 737.465344 142.83264 746.263552 150.309888 753.691648 157.530112 761.059328 165.00736 768.290816 173.25056 774.221824 181.235712 781.2608 189.479936 786.213888 198.35904 791.201792 206.229504 796.51328 215.386112 800.877568 223.369216 808.306688 240.248832 811.958272 248.999936 814.79168 257.113088 817.62816 265.878528 820.169728 274.122752 821.993472 281.211904 824.27392 289.585152 828.315648 304.528384 830.88896 317.545472 832.55296 330.171392 833.985536 340.337664 836.267008 355.801088 836.789248 358.26176 838.612992 361.09824 843.500544 369.081344 846.62784 374.472704 849.432576 380.16 853.015552 386.203648 856.144896 393.439232 858.165248 400.902144 860.382208 409.014272 862.075904 417.37216 862.859264 421.496832 863.509504 426.53184 863.509504 430.912512 862.859264 435.296256 862.859264 440.720384 861.55264 445.984768 859.20768 456.167424 856.536064 461.314048 854.5792 467.116032 854.5792 468.534272 855.492608 470.342656 858.165248 474.595328 869.76512 491.73504 878.954496 504.607744 883.321856 513.243136 889.25184 522.643456 894.401536 532.957184 900.330496 544.02048 906.262528 556.402688 912.944128 570.447872 916.68992 579.067904 920.143872 587.442176 923.14112 596.337664 926.075904 604.321792 928.29184 612.696064 930.571264 620.565504 933.440512 635.897856 935.72096 651.604992 937.284608 665.51808 937.284608 673.11104 937.284608 679.303168 937.284608 685.103104 936.2432 692.076544 934.740992 704.053248 932.658176 714.871808 929.46432 724.646912 928.29184 728.639488 926.075904 733.413376 924.1856 736.769024 921.70752 740.890624 919.493632 743.481344 916.68992 746.821632 914.214912 749.52704 911.541248 751.84128 908.34944 753.256448 905.481216 754.674688 903.135232 755.44064 901.081088 755.44064 899.549184 755.44064 897.236992 754.674688 892.836864 752.490496 890.816512 751.075328 888.7296 749.52704 886.417408 747.456512 884.103168 745.14432 880.260096 740.890624 875.695104 734.846976 872.113152 728.639488 868.52608 723.637248 865.041408 717.837312 860.120064 707.52256 854.5792 696.81664 853.92896 696.441856 853.015552 696.441856 850.737152 698.120192 849.432576 700.940288 847.282176 704.427008 843.500544 714.871808 837.83168 729.679872 830.532608 747.456512 825.058304 756.353024 819.289088 765.62432 812.478464 776.051712 805.245952 786.249728 801.529856 790.879232 797.033472 795.896832 786.704384 806.080512 787.61472 806.976512 789.015552 808.410112 794.167296 811.48928 815.67232 821.787648 825.058304 827.065344 833.985536 832.214016 842.84928 838.668288 850.737152 845.379584 854.5792 848.345088 857.449472 851.830784 860.382208 855.806976 862.859264 860.20608 864.161792 863.821824 865.789952 868.190208 866.44224 871.904256 867.222528 876.30336 866.44224 879.269888 866.44224 882.202624 865.789952 885.331968 864.161792 888.131584 863.509504 890.349568 862.075904 893.021184 858.165248 898.331648 854.5792 902.601728 851.77856 905.793536 849.432576 908.13952 843.500544 912.507904 836.789248 916.255744 829.620224 919.872512 821.993472 923.326464 813.390848 926.650368 808.82688 928.084992 804.723712 929.256448 794.816512 931.570688 784.520192 933.753856 774.221824 935.969792 763.01312 937.762816 751.413248 938.251264 739.550208 939.682816 727.820288 939.682816 715.437056 939.682816 702.728192 939.682816 689.431552 938.901504 677.049344 937.762816 663.752704 935.969792 650.523648 934.536192 636.577792 932.581376 623.085568 929.256448 609.922048 926.650368 596.822016 922.935296 583.396352 918.177792 570.231808 914.168832 563.321856 911.854592 557.129728 909.640704 553.222144 908.13952 549.376 907.357184 544.357376 907.357184 538.426368 907.357184 525.784064 906.447872 519.363584 905.793536 511.117312 904.884224 505.84064 909.640704 498.605056 914.168832 488.828928 918.961152 478.012416 924.891136 471.430144 928.084992 464.585728 930.658304 449.40288 936.851456 441.15456 938.901504 432.520192 941.248512 420.528128 943.529984 413.03552 944.182272 405.08416 944.833536 396.80512 945.744896 387.160064 946.137088 377.9072 946.137088 368.260096 946.137088 347.763712 946.137088 325.507072 945.744896 303.935488 943.529984 292.98688 942.0288 282.42944 940.4672 272.131072 938.901504 261.833728 936.851456 252.286976 933.753856 242.737152 931.570688 234.134528 928.084992 225.989632 924.891136 218.42944 921.240576 211.84512 917.265408 205.263872 912.507904 203.04896 910.16192 200.114176 907.357184 197.899264 904.884224 195.878912 902.080512 194.054144 899.213312 192.620544 896.408576 190.5664 890.349568 189.817856 887.252992 188.905472 883.767296 188.905472 880.57344 189.817856 876.954624 189.817856 873.33888 190.5664 869.722112 190.5664 867.53792 190.5664 862.52032 190.925824 858.64448 192.620544 854.243328 194.054144 849.876992 196.661248 844.597248 198.549504 842.543104 200.114176 840.231936 204.22144 835.212288 207.479808 832.606208 210.541568 830.813184 213.378048 828.500992 217.908224 827.065344 221.4912 824.915968 225.989632 822.56896 231.136256 821.037056 236.285952 819.473408 242.21696 818.2016 247.886848 817.420288 254.598144 816.524288 261.833728 816.004096 263.757824 815.350784 264.14592 815.350784 265.060352 814.569472 265.060352 813.688832 263.757824 811.880448 259.878912 810.07104 250.233856 801.697792 243.77856 796.54912 236.285952 789.983232 228.726784 782.652416 220.838912 773.234688 211.84512 762.674176 208.456704 756.988928 203.96032 751.075328 200.114176 744.230912 196.661248 736.769024 191.968256 729.679872 188.905472 721.567744 185.289728 713.452544 181.67296 704.427008 178.998272 695.809024 176.521216 685.103104 175.739904 684.711936 174.990336 684.711936 174.600192 683.947008 173.686784 683.947008 172.155904 684.711936 171.373568 685.103104 170.331136 686.912512 169.939968 689.094656 169.157632 691.035136 167.788544 694.244352 163.356672 702.113792 161.076224 706.886656 157.46048 711.00928 153.581568 716.010496 149.34528 721.567744 144.847872 726.472704 139.569152 731.229184 134.647808 735.725568 129.272832 739.23072 123.3408 742.960128 117.671936 745.14432 110.957568 746.821632 104.37632 747.456512 103.724032 747.456512 102.812672 747.456512 101.312512 746.821632 100.139008 744.230912 98.184192 742.960128 95.642624 736.769024 94.078976 733.413376 92.38528 728.639488 90.983424 723.637248 90.233856 718.731264 88.147968 707.52256 87.365632 700.940288 87.365632 694.244352 87.365632 679.303168 88.147968 663.204864 89.45152 654.96064 90.983424 646.45632 92.38528 637.316096 94.861312 628.811776 97.662976 619.001856 100.530176 609.4848 104.37632 599.677952 107.992064 590.276608 112.979968 580.74624 117.671936 570.447872 123.3408 560.787456 130.021376 550.342656 136.832 540.941312 143.936512 530.512896 149.866496 523.29472 157.46048 514.922496 165.44256 506.5472 169.157632 502.554624 173.686784 498.040832 180.238336 492.355584 186.948608 486.569984 197.899264 476.778496 206.17728 470.733824Z" />

</svg>
